<?xml version="1.0" encoding="UTF-8"?>
<svg width="4048px" height="956px" viewBox="0 0 4048 956" version="1.1" xmlns="http://www.w3.org/2000/svg" xmlns:xlink="http://www.w3.org/1999/xlink">
    <!-- Generator: Sketch 54.1 (76490) - https://sketchapp.com -->
    <title>Group 2</title>
    <desc>Created with Sketch.</desc>
    <g id="Page-1" stroke="none" stroke-width="1" fill="none" fill-rule="evenodd">
        <g id="Group-2">
            <g id="Group" fill-rule="nonzero">
                <g id="heart-circle" transform="translate(1022.000000, 0.000000)" fill="#F27878">
                    <path d="M248,0 C111,0 0,111 0,248 C0,385 111,496 248,496 C385,496 496,385 496,248 C496,111 385,0 248,0 Z M388.096972,271.915965 L262.5849,401.692974 C254.527615,410.102342 241.3636,410.102342 233.192832,401.692974 L107.794243,271.915965 C71.3662363,234.187447 73.5224112,171.685385 114.262767,136.91151 C149.782911,106.5696 202.665936,112.024325 235.235524,145.661799 C267.805113,179.299272 241.647307,158.844052 248.059091,158.844052 C254.470874,158.844052 228.313068,179.299272 260.882657,145.661799 C293.452245,112.024325 346.33527,106.5696 381.855414,136.91151 C422.482287,171.685385 424.638462,234.187447 388.096972,271.915965 Z" id="Shape"></path>
                </g>
                <path d="M340.722656,395.140625 L271.289062,137.621094 L200.976562,395.140625 C195.507785,414.671973 191.162125,428.685504 187.939453,437.181641 C184.716781,445.677777 179.101603,453.294888 171.09375,460.033203 C163.085897,466.771518 152.441473,470.140625 139.160156,470.140625 C128.417915,470.140625 119.580113,468.138692 112.646484,464.134766 C105.712856,460.130839 100.097678,454.466833 95.8007812,447.142578 C91.5038848,439.818323 87.9882949,431.127003 85.2539062,421.068359 C82.5195176,411.009715 80.0781357,401.683637 77.9296875,393.089844 L6.4453125,103.929688 C2.14841602,87.1327285 -5.68434189e-14,74.3398877 -5.68434189e-14,65.5507812 C-5.68434189e-14,54.4179131 3.90621094,45.0430068 11.71875,37.4257812 C19.5312891,29.8085557 29.1991611,26 40.7226562,26 C56.5430479,26 67.1874727,31.0780742 72.65625,41.234375 C78.1250273,51.3906758 82.9101357,66.1366221 87.0117187,85.4726562 L143.261719,336.253906 L206.25,101.585938 C210.937523,83.6170977 215.1367,69.9453594 218.847656,60.5703125 C222.558612,51.1952656 228.613239,43.0898779 237.011719,36.2539062 C245.410198,29.4179346 256.835865,26 271.289062,26 C285.937573,26 297.314413,29.5644175 305.419922,36.6933594 C313.525431,43.8223013 319.140609,51.5858955 322.265625,59.984375 C325.390641,68.3828545 329.589817,82.2499033 334.863281,101.585938 L398.4375,336.253906 L454.6875,85.4726562 C457.421889,72.3866533 460.009753,62.1328496 462.451172,54.7109375 C464.89259,47.2890254 469.091767,40.6484668 475.048828,34.7890625 C481.005889,28.9296582 489.648381,26 500.976562,26 C512.304744,26 521.923789,29.759728 529.833984,37.2792969 C537.74418,44.7988657 541.699219,54.2225996 541.699219,65.5507812 C541.699219,73.5586338 539.550803,86.3514746 535.253906,103.929688 L463.769531,393.089844 C458.886694,412.621191 454.834,426.927689 451.611328,436.009766 C448.388656,445.091842 442.91996,453.050747 435.205078,459.886719 C427.490196,466.72269 416.601633,470.140625 402.539062,470.140625 C389.257746,470.140625 378.613321,466.820346 370.605469,460.179688 C362.597616,453.539029 357.031266,446.068401 353.90625,437.767578 C350.781234,429.466755 346.386747,415.257913 340.722656,395.140625 Z M685.545052,78.734375 L685.545052,201.78125 L873.33802,201.78125 L873.33802,78.734375 C873.33802,61.1561621 877.293059,47.9727002 885.203255,39.1835938 C893.113451,30.3944873 903.513737,26 916.404427,26 C929.49043,26 940.086027,30.3456597 948.191536,39.0371094 C956.297045,47.7285591 960.349739,60.9608486 960.349739,78.734375 L960.349739,417.113281 C960.349739,434.886808 956.248218,448.167925 948.045052,456.957031 C939.841886,465.746138 929.295116,470.140625 916.404427,470.140625 C903.318424,470.140625 892.86931,465.69731 885.05677,456.810547 C877.244231,447.923784 873.33802,434.691494 873.33802,417.113281 L873.33802,272.679688 L685.545052,272.679688 L685.545052,417.113281 C685.545052,434.886808 681.44353,448.167925 673.240364,456.957031 C665.037198,465.746138 654.490429,470.140625 641.599739,470.140625 C628.513736,470.140625 618.064622,465.69731 610.252083,456.810547 C602.439544,447.923784 598.533333,434.691494 598.533333,417.113281 L598.533333,78.734375 C598.533333,61.1561621 602.390716,47.9727002 610.105599,39.1835938 C617.820481,30.3944873 628.318423,26 641.599739,26 C654.685742,26 665.281339,30.3456597 673.386849,39.0371094 C681.492358,47.7285591 685.545052,60.9608486 685.545052,78.734375 Z M1674.57656,78.9179688 L1674.57656,391.515625 L1850.94375,391.515625 C1865.00632,391.515625 1875.79723,394.93356 1883.3168,401.769531 C1890.83636,408.605503 1894.59609,417.199167 1894.59609,427.550781 C1894.59609,438.097709 1890.88519,446.642545 1883.46328,453.185547 C1876.04137,459.728548 1865.20163,463 1850.94375,463 L1640.88516,463 C1621.93975,463 1608.31684,458.800823 1600.01601,450.402344 C1591.71519,442.003864 1587.56484,428.429781 1587.56484,409.679688 L1587.56484,78.9179688 C1587.56484,61.3397559 1591.51988,48.1562939 1599.43008,39.3671875 C1607.34027,30.5780811 1617.74056,26.1835938 1630.63125,26.1835938 C1643.71725,26.1835938 1654.31285,30.5292534 1662.41836,39.2207031 C1670.52387,47.9121528 1674.57656,61.1444424 1674.57656,78.9179688 Z M2647.30859,333.910156 C2647.30859,359.886849 2640.61921,383.226459 2627.24023,403.929688 C2613.86126,424.632916 2594.28138,440.843691 2568.5,452.5625 C2542.71862,464.281309 2512.15252,470.140625 2476.80078,470.140625 C2434.41776,470.140625 2399.45717,462.132893 2371.91797,446.117188 C2352.38662,434.593692 2336.51764,419.212987 2324.31055,399.974609 C2312.10345,380.736232 2306,362.035247 2306,343.871094 C2306,333.324166 2309.66207,324.291053 2316.98633,316.771484 C2324.31058,309.251916 2333.63666,305.492188 2344.96484,305.492188 C2354.14458,305.492188 2361.90817,308.421846 2368.25586,314.28125 C2374.60355,320.140654 2380.02342,328.831974 2384.51562,340.355469 C2389.9844,354.027412 2395.89255,365.453079 2402.24023,374.632812 C2408.58792,383.812546 2417.52338,391.38083 2429.04688,397.337891 C2440.57037,403.294952 2455.70694,406.273438 2474.45703,406.273438 C2500.23841,406.273438 2521.18547,400.267638 2537.29883,388.255859 C2553.41219,376.244081 2561.46875,361.253996 2561.46875,343.285156 C2561.46875,329.027272 2557.12309,317.455123 2548.43164,308.568359 C2539.74019,299.681596 2528.50983,292.894555 2514.74023,288.207031 C2500.97063,283.519508 2482.56262,278.539089 2459.51562,273.265625 C2428.6561,266.039026 2402.82628,257.591845 2382.02539,247.923828 C2361.22451,238.255811 2344.72076,225.072349 2332.51367,208.373047 C2320.30658,191.673745 2314.20312,170.921999 2314.20312,146.117188 C2314.20312,122.484257 2320.64837,101.488373 2333.53906,83.1289062 C2346.42975,64.7694395 2365.08191,50.6582524 2389.49609,40.7949219 C2413.91028,30.9315913 2442.62093,26 2475.62891,26 C2501.99623,26 2524.79873,29.2714517 2544.03711,35.8144531 C2563.27549,42.3574546 2579.24212,51.0487739 2591.9375,61.8886719 C2604.63288,72.7285698 2613.91013,84.1054092 2619.76953,96.0195312 C2625.62894,107.933653 2628.55859,119.554631 2628.55859,130.882812 C2628.55859,141.234427 2624.89652,150.560505 2617.57227,158.861328 C2610.24801,167.162151 2601.11724,171.3125 2590.17969,171.3125 C2580.2187,171.3125 2572.65042,168.822291 2567.47461,163.841797 C2562.2988,158.861303 2556.68362,150.707088 2550.62891,139.378906 C2542.81637,123.167888 2533.44146,110.52153 2522.50391,101.439453 C2511.56635,92.3573765 2493.9884,87.8164062 2469.76953,87.8164062 C2447.30848,87.8164062 2429.19343,92.7479976 2415.42383,102.611328 C2401.65423,112.474659 2394.76953,124.339774 2394.76953,138.207031 C2394.76953,146.800824 2397.11326,154.222625 2401.80078,160.472656 C2406.4883,166.722688 2412.93355,172.093728 2421.13672,176.585938 C2429.33988,181.078147 2437.64058,184.593737 2446.03906,187.132812 C2454.43754,189.671888 2468.30459,193.382788 2487.64062,198.265625 C2511.8595,203.929716 2533.7831,210.179653 2553.41211,217.015625 C2573.04111,223.851597 2589.74017,232.152295 2603.50977,241.917969 C2617.27937,251.683643 2628.02145,264.037035 2635.73633,278.978516 C2643.45121,293.919997 2647.30859,312.23036 2647.30859,333.910156 Z M2908.6349,26 C2953.16637,26 2991.39841,35.0331128 3023.33216,53.0996094 C3055.26591,71.166106 3079.43559,96.8494429 3095.84193,130.150391 C3112.24826,163.451338 3120.4513,202.562275 3120.4513,247.484375 C3120.4513,280.687666 3115.95916,310.863146 3106.97474,338.011719 C3097.99032,365.160292 3084.51389,388.695213 3066.54505,408.617188 C3048.57621,428.539162 3026.50612,443.773385 3000.33411,454.320312 C2974.16211,464.86724 2944.18194,470.140625 2910.39271,470.140625 C2876.79879,470.140625 2846.72097,464.720757 2820.15833,453.880859 C2793.5957,443.040961 2771.42795,427.757911 2753.65443,408.03125 C2735.8809,388.304589 2722.4533,364.574357 2713.37122,336.839844 C2704.28915,309.10533 2699.74818,279.125161 2699.74818,246.898438 C2699.74818,213.89046 2704.48446,183.617325 2713.95716,156.078125 C2723.42986,128.538925 2737.15043,105.101659 2755.11927,85.765625 C2773.08811,66.4295908 2794.96289,51.6348169 2820.74427,41.3808594 C2846.52565,31.1269019 2875.82223,26 2908.6349,26 Z M3032.26771,246.898438 C3032.26771,215.452968 3027.18963,188.207146 3017.03333,165.160156 C3006.87703,142.113166 2992.37522,124.6817 2973.52747,112.865234 C2954.67972,101.048769 2933.04908,95.140625 2908.6349,95.140625 C2891.252,95.140625 2875.1877,98.4120767 2860.44154,104.955078 C2845.69537,111.49808 2833.00018,121.019469 2822.3556,133.519531 C2811.71101,146.019594 2803.31266,161.986231 2797.16029,181.419922 C2791.00791,200.853613 2787.93177,222.679566 2787.93177,246.898438 C2787.93177,271.312622 2791.00791,293.382714 2797.16029,313.109375 C2803.31266,332.836036 2812.00398,349.193294 2823.2345,362.181641 C2834.46503,375.169987 2847.35553,384.886687 2861.90638,391.332031 C2876.45723,397.777376 2892.42387,401 2909.80677,401 C2932.07251,401 2952.53129,395.433649 2971.18372,384.300781 C2989.83616,373.167913 3004.67976,355.980585 3015.71497,332.738281 C3026.75019,309.495978 3032.26771,280.882982 3032.26771,246.898438 Z M3338.41823,398.070312 L3269.57057,124.4375 L3269.57057,420.921875 C3269.57057,437.328207 3265.9085,449.632771 3258.58424,457.835938 C3251.25999,466.039104 3241.54329,470.140625 3229.43385,470.140625 C3217.71504,470.140625 3208.14483,466.087931 3200.72292,457.982422 C3193.301,449.876913 3189.5901,437.523521 3189.5901,420.921875 L3189.5901,81.078125 C3189.5901,62.3280312 3194.47287,49.6816733 3204.23854,43.1386719 C3214.00421,36.5956704 3227.18768,33.3242188 3243.78932,33.3242188 L3270.74245,33.3242188 C3286.95347,33.3242188 3298.72093,34.7890479 3306.04518,37.71875 C3313.36944,40.6484521 3318.7893,45.9218369 3322.30495,53.5390625 C3325.82059,61.1562881 3329.82446,73.5585078 3334.31667,90.7460938 L3396.71901,326 L3459.12135,90.7460938 C3463.61356,73.5585078 3467.61743,61.1562881 3471.13307,53.5390625 C3474.64871,45.9218369 3480.06858,40.6484521 3487.39284,37.71875 C3494.71709,34.7890479 3506.48455,33.3242188 3522.69557,33.3242188 L3549.6487,33.3242188 C3566.25034,33.3242188 3579.4338,36.5956704 3589.19948,43.1386719 C3598.96515,49.6816733 3603.84792,62.3280312 3603.84792,81.078125 L3603.84792,420.921875 C3603.84792,437.328207 3600.18584,449.632771 3592.86159,457.835938 C3585.53733,466.039104 3575.72298,470.140625 3563.41823,470.140625 C3551.89473,470.140625 3542.42217,466.039104 3535.00026,457.835938 C3527.57835,449.632771 3523.86745,437.328207 3523.86745,420.921875 L3523.86745,124.4375 L3455.01979,398.070312 C3450.52758,415.843839 3446.86551,428.880818 3444.03346,437.181641 C3441.20142,445.482463 3435.97686,453.050747 3428.35963,459.886719 C3420.74241,466.72269 3410.19564,470.140625 3396.71901,470.140625 C3386.56271,470.140625 3377.96904,467.943381 3370.93776,463.548828 C3363.90647,459.154275 3358.43778,453.539097 3354.53151,446.703125 C3350.62524,439.867153 3347.5491,432.29887 3345.30299,423.998047 C3343.05689,415.697224 3340.76199,407.054732 3338.41823,398.070312 Z M3974.74453,100.414062 L3778.74844,100.414062 L3778.74844,205.882812 L3959.21719,205.882812 C3972.4985,205.882812 3982.41051,208.861298 3988.95351,214.818359 C3995.49652,220.77542 3998.76797,228.63667 3998.76797,238.402344 C3998.76797,248.168018 3995.54534,256.126922 3989.1,262.279297 C3982.65465,268.431671 3972.69382,271.507812 3959.21719,271.507812 L3778.74844,271.507812 L3778.74844,393.675781 L3981.48281,393.675781 C3995.15475,393.675781 4005.45739,396.849578 4012.39101,403.197266 C4019.32464,409.544954 4022.79141,417.992135 4022.79141,428.539062 C4022.79141,438.695363 4019.32464,446.947234 4012.39101,453.294922 C4005.45739,459.64261 3995.15475,462.816406 3981.48281,462.816406 L3745.05703,462.816406 C3726.11162,462.816406 3712.48871,458.617229 3704.18789,450.21875 C3695.88707,441.820271 3691.73672,428.246188 3691.73672,409.496094 L3691.73672,86.6445312 C3691.73672,74.1444687 3693.59217,63.9394927 3697.30312,56.0292969 C3701.01408,48.1191011 3706.82457,42.3574399 3714.73476,38.7441406 C3722.64496,35.1308413 3732.75228,33.3242188 3745.05703,33.3242188 L3974.74453,33.3242188 C3988.61179,33.3242188 3998.91442,36.4003599 4005.65273,42.5527344 C4012.39105,48.7051089 4015.76016,56.7616689 4015.76016,66.7226562 C4015.76016,76.878957 4012.39105,85.0331724 4005.65273,91.1855469 C3998.91442,97.3379214 3988.61179,100.414062 3974.74453,100.414062 Z M2201.00781,93.0898438 L2005.01172,93.0898438 L2005.01172,198.558594 L2185.48047,198.558594 C2198.76179,198.558594 2208.6738,201.53708 2215.2168,207.494141 C2221.7598,213.451202 2225.03125,221.312451 2225.03125,231.078125 C2225.03125,240.843799 2221.80863,248.802704 2215.36328,254.955078 C2208.91794,261.107453 2198.9571,264.183594 2185.48047,264.183594 L2005.01172,264.183594 L2005.01172,386.351562 L2207.74609,386.351562 C2221.41804,386.351562 2231.72067,389.525359 2238.6543,395.873047 C2245.58793,402.220735 2249.05469,410.667916 2249.05469,421.214844 C2249.05469,431.371145 2245.58793,439.623015 2238.6543,445.970703 C2231.72067,452.318391 2221.41804,455.492188 2207.74609,455.492188 L1971.32031,455.492188 C1952.37491,455.492188 1938.75199,451.293011 1930.45117,442.894531 C1922.15035,434.496052 1918,420.921969 1918,402.171875 L1918,79.3203125 C1918,66.82025 1919.85545,56.6152739 1923.56641,48.7050781 C1927.27736,40.7948823 1933.08785,35.0332212 1940.99805,31.4199219 C1948.90824,27.8066226 1959.01556,26 1971.32031,26 L2201.00781,26 C2214.87507,26 2225.1777,29.0761411 2231.91602,35.2285156 C2238.65433,41.3808901 2242.02344,49.4374502 2242.02344,59.3984375 C2242.02344,69.5547383 2238.65433,77.7089536 2231.91602,83.8613281 C2225.1777,90.0137026 2214.87507,93.0898438 2201.00781,93.0898438 Z" id="WHOLSOME" fill="#F78381"></path>
            </g>
            <text id="SOFTWARE" font-family="ArialMT, Arial" font-size="500" font-weight="normal" letter-spacing="180" fill="#4F4B4B">
                <tspan x="0" y="949">SOFTWAR</tspan>
                <tspan x="3741.20117" y="949">E</tspan>
            </text>
        </g>
    </g>
</svg>